<?xml version="1.0" encoding="utf-8"?>
<!-- Generator: Adobe Illustrator 27.1.1, SVG Export Plug-In . SVG Version: 6.00 Build 0)  -->
<svg version="1.1" id="Layer_1" xmlns="http://www.w3.org/2000/svg" xmlns:xlink="http://www.w3.org/1999/xlink" x="0px" y="0px"
	 viewBox="0 0 359.15 135.21" style="enable-background:new 0 0 359.15 135.21;" xml:space="preserve">
<style type="text/css">
	.st0{fill:#B39A55;}
</style>
<g>
	<path class="st0" d="M125.24,66.82c0,1.58,0.24,3.01,0.72,4.27c0.48,1.26,1.14,2.33,1.98,3.2s1.83,1.54,2.97,2
		c1.14,0.46,2.38,0.69,3.71,0.69c0.8,0,1.57-0.15,2.31-0.46c0.74-0.31,1.43-0.71,2.06-1.21c0.63-0.5,1.2-1.05,1.7-1.68
		s0.91-1.25,1.23-1.89l1.61,1.03c-0.47,0.76-1.02,1.5-1.66,2.2c-0.64,0.7-1.38,1.32-2.22,1.86c-0.84,0.54-1.79,0.97-2.84,1.29
		c-1.06,0.32-2.23,0.48-3.53,0.48c-1.88,0-3.59-0.31-5.12-0.94c-1.53-0.63-2.85-1.48-3.94-2.55c-1.09-1.07-1.94-2.32-2.54-3.76
		c-0.6-1.43-0.9-2.95-0.9-4.54c0-1.06,0.14-2.1,0.41-3.11c0.27-1.01,0.67-1.96,1.19-2.84c0.52-0.88,1.15-1.69,1.9-2.43
		c0.75-0.74,1.59-1.37,2.53-1.9s1.97-0.94,3.09-1.23c1.12-0.29,2.31-0.44,3.58-0.44c1.21,0,2.32,0.16,3.34,0.49
		c1.02,0.33,1.95,0.76,2.79,1.29c0.84,0.54,1.59,1.15,2.24,1.86c0.66,0.7,1.22,1.43,1.69,2.2l-1.66,1.1
		c-0.95-1.84-2.01-3.18-3.18-4.03c-1.17-0.85-2.53-1.27-4.05-1.27c-1.31,0-2.54,0.24-3.68,0.72c-1.14,0.48-2.14,1.16-2.99,2.05
		s-1.52,1.97-2,3.24C125.48,63.79,125.24,65.22,125.24,66.82z"/>
	<path class="st0" d="M160.25,78.08c-0.46-0.23-0.84-0.55-1.15-0.97c-0.31-0.42-0.47-0.89-0.47-1.43c-0.41,0.31-0.81,0.63-1.21,0.96
		c-0.39,0.33-0.82,0.63-1.28,0.9c-0.46,0.27-0.98,0.49-1.54,0.66c-0.56,0.17-1.22,0.26-1.96,0.26c-0.68,0-1.3-0.11-1.86-0.33
		c-0.55-0.22-1.02-0.53-1.4-0.92s-0.68-0.85-0.89-1.39s-0.32-1.11-0.32-1.73c0-0.75,0.15-1.43,0.44-2.04c0.3-0.6,0.7-1.14,1.22-1.62
		s1.12-0.9,1.81-1.27c0.68-0.37,1.41-0.7,2.19-0.99c0.78-0.29,1.57-0.55,2.4-0.78c0.82-0.23,1.62-0.44,2.4-0.63v-1.09
		c0-0.8-0.06-1.47-0.17-2.02c-0.11-0.55-0.29-0.99-0.53-1.33c-0.24-0.34-0.54-0.58-0.92-0.72s-0.81-0.21-1.33-0.21
		c-0.49,0-0.94,0.1-1.35,0.29c-0.41,0.19-0.77,0.45-1.09,0.78c-0.31,0.32-0.57,0.71-0.77,1.15c-0.2,0.44-0.33,0.9-0.4,1.39h-3.18
		c0.09-0.75,0.35-1.43,0.78-2.02c0.43-0.59,0.97-1.09,1.62-1.5c0.65-0.4,1.39-0.72,2.22-0.93s1.69-0.33,2.57-0.33
		c1.14,0,2.1,0.11,2.87,0.33c0.78,0.22,1.4,0.53,1.86,0.93c0.47,0.4,0.8,0.89,1,1.46c0.2,0.58,0.3,1.21,0.3,1.91v10.81
		c0,0.54,0.16,1.01,0.47,1.43c0.31,0.42,0.7,0.74,1.15,0.97H160.25z M158.63,67.88c-0.5,0.16-1.02,0.34-1.56,0.55
		s-1.06,0.44-1.57,0.69s-1,0.53-1.47,0.83c-0.47,0.3-0.88,0.62-1.23,0.96c-0.35,0.34-0.63,0.7-0.84,1.08
		c-0.21,0.38-0.31,0.77-0.31,1.18c0,0.43,0.08,0.84,0.24,1.22c0.16,0.38,0.37,0.72,0.63,1.01c0.26,0.29,0.56,0.52,0.91,0.68
		c0.34,0.17,0.7,0.25,1.06,0.25c0.39,0,0.76-0.05,1.11-0.15s0.7-0.24,1.03-0.42c0.33-0.18,0.66-0.38,0.99-0.61
		c0.33-0.23,0.67-0.47,1.01-0.74V67.88z"/>
	<path class="st0" d="M175.53,56.32c-0.38,0-0.72,0.1-1.03,0.3c-0.31,0.2-0.58,0.46-0.8,0.79c-0.22,0.33-0.39,0.7-0.51,1.12
		c-0.12,0.42-0.18,0.86-0.18,1.3v4.12h4.67v1.49h-4.67v13.01h-3.49V65.44h-3.64v-1.49h3.64v-2.02c0-0.96,0.17-1.86,0.51-2.69
		c0.34-0.84,0.81-1.57,1.39-2.19c0.59-0.62,1.28-1.11,2.07-1.48c0.79-0.37,1.64-0.55,2.54-0.55c0.62,0,1.21,0.08,1.79,0.24
		c0.58,0.16,1.11,0.38,1.6,0.68c0.49,0.29,0.93,0.65,1.31,1.08c0.38,0.43,0.69,0.9,0.91,1.43l-2.53,1.83
		c-0.13-0.46-0.27-0.92-0.44-1.39c-0.17-0.47-0.39-0.89-0.65-1.27c-0.26-0.38-0.59-0.69-0.99-0.93
		C176.61,56.44,176.12,56.32,175.53,56.32z"/>
	<path class="st0" d="M188.85,78.45c-1.19,0-2.3-0.22-3.34-0.67s-1.95-1.05-2.73-1.81c-0.78-0.76-1.39-1.66-1.84-2.69
		c-0.45-1.03-0.68-2.13-0.68-3.29c0-1.4,0.21-2.7,0.62-3.89c0.41-1.19,0.99-2.22,1.75-3.09c0.75-0.87,1.66-1.55,2.71-2.04
		c1.05-0.49,2.23-0.74,3.53-0.74c1.14,0,2.19,0.2,3.15,0.61s1.78,0.95,2.47,1.63c0.69,0.68,1.23,1.46,1.61,2.35s0.57,1.82,0.57,2.79
		h-13.05c0,1.17,0.15,2.26,0.45,3.27c0.3,1,0.73,1.87,1.28,2.6c0.55,0.73,1.2,1.3,1.95,1.71s1.58,0.62,2.48,0.62
		c0.75,0,1.48-0.12,2.17-0.37c0.7-0.25,1.33-0.57,1.89-0.97c0.56-0.4,1.05-0.86,1.45-1.37s0.68-1.04,0.84-1.59l1.01,0.44
		c-0.25,0.9-0.66,1.74-1.21,2.53s-1.21,1.47-1.96,2.06s-1.56,1.05-2.44,1.39C190.64,78.28,189.75,78.45,188.85,78.45z M192.3,66.2
		c0-0.66-0.12-1.28-0.35-1.85c-0.23-0.57-0.56-1.06-0.97-1.48c-0.41-0.42-0.89-0.74-1.44-0.98c-0.55-0.24-1.13-0.36-1.76-0.36
		c-0.53,0-1.03,0.12-1.51,0.35c-0.48,0.23-0.91,0.56-1.28,0.98c-0.38,0.42-0.69,0.91-0.93,1.48s-0.39,1.19-0.44,1.85L192.3,66.2z"/>
	<path class="st0" d="M222.32,76.38c-0.4,0.32-0.83,0.61-1.3,0.86c-0.47,0.26-0.96,0.47-1.46,0.65c-0.51,0.18-1.02,0.31-1.53,0.41
		c-0.51,0.1-1.01,0.15-1.5,0.15c-1.03,0-1.99-0.24-2.88-0.72c-0.9-0.48-1.68-1.12-2.34-1.93c-0.67-0.81-1.2-1.75-1.58-2.83
		c-0.39-1.08-0.58-2.22-0.58-3.41c0-1.19,0.24-2.34,0.73-3.46s1.14-2.11,1.98-2.99c0.83-0.87,1.8-1.57,2.92-2.1
		c1.11-0.52,2.3-0.79,3.57-0.79c0.86,0,1.6,0.15,2.23,0.44c0.63,0.3,1.22,0.69,1.77,1.18v-5.97l2.45-0.99h1.01v23.48h-3.46V76.38z
		 M222.32,66.14c0-0.68-0.13-1.31-0.38-1.87c-0.26-0.56-0.59-1.05-1-1.45c-0.41-0.4-0.88-0.72-1.39-0.94
		c-0.52-0.22-1.04-0.33-1.57-0.33c-0.7,0-1.35,0.17-1.95,0.51c-0.61,0.34-1.13,0.82-1.58,1.45s-0.81,1.36-1.07,2.22
		s-0.39,1.81-0.39,2.85c0,1.12,0.14,2.16,0.43,3.13c0.29,0.97,0.68,1.82,1.17,2.54c0.5,0.72,1.08,1.29,1.75,1.71
		s1.38,0.62,2.15,0.62c0.36,0,0.73-0.05,1.1-0.15c0.37-0.1,0.72-0.23,1.05-0.39c0.33-0.17,0.64-0.36,0.93-0.57
		c0.29-0.22,0.54-0.44,0.76-0.68V66.14z"/>
	<path class="st0" d="M239.83,78.45c-1.19,0-2.3-0.22-3.34-0.67s-1.95-1.05-2.73-1.81c-0.78-0.76-1.39-1.66-1.84-2.69
		c-0.45-1.03-0.68-2.13-0.68-3.29c0-1.4,0.21-2.7,0.62-3.89c0.41-1.19,0.99-2.22,1.75-3.09c0.75-0.87,1.66-1.55,2.71-2.04
		c1.05-0.49,2.23-0.74,3.53-0.74c1.14,0,2.19,0.2,3.15,0.61s1.78,0.95,2.47,1.63c0.69,0.68,1.23,1.46,1.61,2.35s0.57,1.82,0.57,2.79
		H234.6c0,1.17,0.15,2.26,0.45,3.27c0.3,1,0.73,1.87,1.28,2.6c0.55,0.73,1.2,1.3,1.95,1.71s1.58,0.62,2.48,0.62
		c0.75,0,1.48-0.12,2.17-0.37c0.7-0.25,1.33-0.57,1.89-0.97c0.56-0.4,1.05-0.86,1.45-1.37s0.68-1.04,0.84-1.59l1.01,0.44
		c-0.25,0.9-0.66,1.74-1.21,2.53s-1.21,1.47-1.96,2.06s-1.56,1.05-2.44,1.39C241.62,78.28,240.73,78.45,239.83,78.45z M243.29,66.2
		c0-0.66-0.12-1.28-0.35-1.85c-0.23-0.57-0.56-1.06-0.97-1.48c-0.41-0.42-0.89-0.74-1.44-0.98c-0.55-0.24-1.13-0.36-1.76-0.36
		c-0.53,0-1.03,0.12-1.51,0.35c-0.48,0.23-0.91,0.56-1.28,0.98c-0.38,0.42-0.69,0.91-0.93,1.48s-0.39,1.19-0.44,1.85L243.29,66.2z"
		/>
	<path class="st0" d="M261.29,55.12h7.19c1.19,0,2.3,0.14,3.34,0.43c1.04,0.29,1.94,0.71,2.71,1.27s1.37,1.25,1.81,2.06
		c0.44,0.81,0.66,1.75,0.66,2.8c0,1.04-0.21,1.94-0.64,2.72c-0.43,0.77-0.99,1.41-1.69,1.92s-1.5,0.89-2.39,1.13
		c-0.89,0.25-1.8,0.37-2.72,0.37c-0.4,0-0.82-0.01-1.25-0.03c-0.43-0.02-0.85-0.04-1.25-0.08s-0.77-0.08-1.11-0.12
		c-0.34-0.05-0.62-0.09-0.84-0.14v10.89h-3.82V55.12z M265.11,66.18c0.43,0.15,0.9,0.27,1.39,0.37c0.49,0.1,0.99,0.15,1.51,0.15
		c0.82,0,1.54-0.12,2.16-0.37s1.13-0.59,1.54-1.02c0.41-0.43,0.71-0.94,0.92-1.53c0.2-0.58,0.3-1.21,0.3-1.86
		c0-0.77-0.13-1.47-0.39-2.1c-0.26-0.62-0.62-1.16-1.09-1.6s-1-0.79-1.62-1.03c-0.62-0.24-1.29-0.36-1.99-0.36h-2.7V66.18z"/>
	<path class="st0" d="M293.09,78.36c-1.4-0.11-1.74-2.14-1.74-2.68c-0.41,0.31-0.81,0.63-1.21,0.96c-0.39,0.33-0.82,0.63-1.28,0.9
		c-0.46,0.27-0.97,0.49-1.54,0.66c-0.56,0.17-1.22,0.26-1.96,0.26c-0.68,0-1.3-0.11-1.86-0.33c-0.55-0.22-1.02-0.53-1.4-0.92
		c-0.38-0.39-0.68-0.85-0.89-1.39c-0.21-0.54-0.32-1.11-0.32-1.73c0-0.75,0.15-1.43,0.44-2.04s0.7-1.14,1.22-1.62
		c0.52-0.47,1.12-0.9,1.8-1.27s1.41-0.7,2.19-0.99s1.57-0.55,2.4-0.78s1.62-0.44,2.39-0.63v-1.09c0-0.8-0.06-1.47-0.17-2.02
		c-0.11-0.55-0.29-0.99-0.53-1.33c-0.24-0.34-0.54-0.58-0.92-0.72c-0.37-0.14-0.81-0.21-1.33-0.21c-0.49,0-0.94,0.1-1.35,0.29
		c-0.41,0.19-0.77,0.45-1.09,0.78c-0.31,0.32-0.57,0.71-0.77,1.15c-0.2,0.44-0.33,0.9-0.4,1.39h-3.18c0.09-0.75,0.35-1.43,0.78-2.02
		c0.43-0.59,0.97-1.09,1.62-1.5c0.65-0.4,1.39-0.72,2.22-0.93c0.83-0.22,1.68-0.33,2.57-0.33c1.14,0,2.1,0.11,2.87,0.33
		c0.78,0.22,1.4,0.53,1.87,0.93c0.47,0.4,0.8,0.89,1,1.46c0.2,0.58,0.3,1.21,0.3,1.91v10.81c0,0.54,0.16,1.01,0.47,1.43
		c0.31,0.42,0.81,1.02,1.27,1.25H293.09z M291.35,67.88c-0.5,0.16-1.02,0.34-1.56,0.55s-1.06,0.44-1.57,0.69
		c-0.51,0.26-1,0.53-1.47,0.83c-0.47,0.3-0.88,0.62-1.23,0.96c-0.35,0.34-0.63,0.7-0.84,1.08s-0.31,0.77-0.31,1.18
		c0,0.43,0.08,0.84,0.24,1.22c0.16,0.38,0.37,0.72,0.63,1.01c0.26,0.29,0.56,0.52,0.91,0.68c0.34,0.17,0.7,0.25,1.06,0.25
		c0.39,0,0.76-0.05,1.11-0.15s0.7-0.24,1.03-0.42c0.33-0.18,0.66-0.38,0.99-0.61c0.33-0.23,0.67-0.47,1.01-0.74V67.88z"/>
	<path class="st0" d="M303.47,60.23H304l0.46,3.58c0.27-0.52,0.62-1,1.03-1.44c0.41-0.43,0.86-0.81,1.36-1.13
		c0.5-0.32,1.02-0.57,1.57-0.74c0.55-0.18,1.12-0.27,1.69-0.27c0.51,0,1.02,0.07,1.51,0.21c0.5,0.14,0.96,0.35,1.39,0.65l-1.09,2.93
		c-0.23-0.25-0.47-0.45-0.72-0.61c-0.25-0.15-0.51-0.27-0.77-0.36c-0.26-0.09-0.53-0.14-0.8-0.16c-0.27-0.02-0.55-0.03-0.82-0.03
		c-0.43,0-0.86,0.06-1.27,0.19c-0.42,0.13-0.81,0.31-1.19,0.56c-0.38,0.25-0.72,0.56-1.04,0.94c-0.32,0.38-0.6,0.83-0.84,1.34v12.59
		h-3.47V61.19L303.47,60.23z"/>
	<path class="st0" d="M316.66,57.07c0-0.27,0.05-0.53,0.15-0.77c0.1-0.24,0.25-0.45,0.43-0.63c0.18-0.18,0.39-0.32,0.63-0.43
		c0.24-0.1,0.5-0.15,0.77-0.15c0.27,0,0.53,0.05,0.77,0.15c0.24,0.1,0.45,0.25,0.63,0.43c0.18,0.18,0.33,0.39,0.43,0.63
		c0.1,0.24,0.15,0.5,0.15,0.77c0,0.27-0.05,0.53-0.15,0.77c-0.1,0.24-0.25,0.45-0.43,0.63c-0.18,0.18-0.39,0.33-0.63,0.43
		s-0.5,0.15-0.77,0.15c-0.27,0-0.53-0.05-0.77-0.15s-0.45-0.25-0.63-0.43c-0.18-0.18-0.33-0.39-0.43-0.63
		C316.71,57.6,316.66,57.34,316.66,57.07z M316.93,61.23l2.45-0.99h1.01v18.24h-3.46V61.23z"/>
	<path class="st0" d="M332.6,77.24c0.47,0,0.9-0.07,1.3-0.21c0.4-0.14,0.74-0.33,1.04-0.57c0.29-0.24,0.52-0.52,0.68-0.83
		c0.16-0.31,0.24-0.64,0.24-0.97c0-0.54-0.13-1-0.4-1.4c-0.27-0.4-0.62-0.76-1.06-1.07c-0.44-0.31-0.94-0.6-1.5-0.86
		c-0.56-0.26-1.13-0.53-1.71-0.81c-0.58-0.28-1.15-0.58-1.71-0.89c-0.56-0.31-1.06-0.68-1.5-1.1c-0.44-0.42-0.79-0.91-1.06-1.46
		c-0.27-0.55-0.4-1.2-0.4-1.94c0-0.7,0.15-1.34,0.44-1.94c0.29-0.6,0.71-1.11,1.23-1.55c0.53-0.43,1.16-0.77,1.88-1.02
		c0.73-0.25,1.53-0.37,2.39-0.37c0.58,0,1.12,0.04,1.63,0.12c0.5,0.08,1,0.23,1.48,0.46c0.48,0.23,0.97,0.56,1.45,0.98
		c0.48,0.43,0.99,0.98,1.52,1.67l-1.28,1.15c-0.66-1.08-1.4-1.89-2.22-2.42s-1.69-0.8-2.61-0.8c-0.5,0-0.96,0.06-1.37,0.18
		c-0.41,0.12-0.76,0.29-1.05,0.5c-0.29,0.21-0.52,0.46-0.68,0.74c-0.17,0.29-0.25,0.59-0.25,0.91c0,0.52,0.15,0.98,0.44,1.37
		s0.68,0.74,1.16,1.05c0.48,0.31,1.03,0.6,1.64,0.86c0.61,0.26,1.23,0.53,1.87,0.8c0.63,0.27,1.26,0.57,1.87,0.89
		s1.16,0.69,1.64,1.1c0.48,0.42,0.87,0.9,1.16,1.45c0.29,0.55,0.44,1.19,0.44,1.92c0,0.74-0.14,1.43-0.41,2.08
		c-0.27,0.64-0.69,1.2-1.24,1.68c-0.55,0.47-1.25,0.85-2.08,1.12c-0.83,0.27-1.81,0.41-2.94,0.41c-0.51,0-1.04-0.04-1.58-0.12
		c-0.54-0.08-1.09-0.24-1.63-0.47c-0.55-0.23-1.09-0.56-1.64-0.98c-0.55-0.42-1.08-0.98-1.61-1.66l1.42-1.28
		c0.42,0.59,0.83,1.1,1.21,1.51s0.78,0.76,1.19,1.03c0.4,0.27,0.82,0.46,1.25,0.58C331.63,77.18,332.1,77.24,332.6,77.24z"/>
</g>
<g>
	<path class="st0" d="M123.82,96.06c0,1.01,0.15,1.92,0.46,2.72c0.31,0.8,0.72,1.48,1.26,2.04c0.53,0.56,1.16,0.98,1.89,1.28
		c0.73,0.29,1.51,0.44,2.36,0.44c0.51,0,1-0.1,1.47-0.29s0.91-0.45,1.31-0.77c0.4-0.32,0.76-0.67,1.08-1.07s0.58-0.8,0.78-1.2
		l1.02,0.65c-0.3,0.49-0.65,0.95-1.06,1.4s-0.88,0.84-1.41,1.19c-0.53,0.35-1.14,0.62-1.81,0.82s-1.42,0.31-2.25,0.31
		c-1.2,0-2.29-0.2-3.26-0.6c-0.98-0.4-1.81-0.94-2.51-1.62c-0.7-0.68-1.24-1.48-1.62-2.39c-0.38-0.91-0.57-1.88-0.57-2.89
		c0-0.67,0.09-1.33,0.26-1.98c0.17-0.64,0.43-1.25,0.76-1.81c0.33-0.56,0.73-1.08,1.21-1.55c0.48-0.47,1.01-0.87,1.61-1.21
		c0.6-0.34,1.25-0.6,1.97-0.78c0.71-0.19,1.47-0.28,2.28-0.28c0.77,0,1.48,0.1,2.13,0.31c0.65,0.21,1.24,0.48,1.78,0.82
		c0.53,0.34,1.01,0.74,1.43,1.18c0.42,0.45,0.78,0.91,1.07,1.4l-1.06,0.7c-0.6-1.17-1.28-2.03-2.03-2.57s-1.61-0.81-2.58-0.81
		c-0.84,0-1.62,0.15-2.34,0.46c-0.73,0.31-1.36,0.74-1.9,1.31c-0.54,0.57-0.97,1.26-1.27,2.06
		C123.97,94.13,123.82,95.05,123.82,96.06z"/>
	<path class="st0" d="M141.61,96.3v6.93h-2.43V88.78h2.43v6.58h7.26v-6.58h2.43v14.45h-2.43V96.3H141.61z"/>
	<path class="st0" d="M165.61,88.78v0.94H158v5.17h5.1v0.94H158v6.47h7.62v0.94h-10.05V88.78H165.61z"/>
	<path class="st0" d="M180.76,88.78l-10.45,13.51h10.45v0.94h-13.72v-0.36l10.15-13.15h-10.15v-0.94H180.76z"/>
	<path class="st0" d="M188.11,88.78h5.82c0.77,0,1.48,0.08,2.12,0.26c0.64,0.17,1.19,0.41,1.66,0.72c0.46,0.31,0.82,0.69,1.07,1.12
		c0.25,0.44,0.38,0.92,0.38,1.44c0,0.4-0.04,0.76-0.12,1.07c-0.08,0.31-0.22,0.6-0.43,0.87c-0.2,0.27-0.47,0.52-0.81,0.75
		s-0.76,0.48-1.28,0.72v0.04c0.52,0.08,0.98,0.22,1.39,0.41s0.77,0.45,1.06,0.75c0.29,0.3,0.52,0.65,0.68,1.06
		c0.16,0.4,0.24,0.84,0.24,1.32c0,0.54-0.12,1.05-0.35,1.53c-0.24,0.47-0.57,0.89-1.01,1.24c-0.44,0.35-0.97,0.63-1.59,0.83
		c-0.62,0.2-1.32,0.31-2.09,0.31h-6.75V88.78z M190.54,95.29h3.09c0.49,0,0.92-0.07,1.3-0.21s0.7-0.33,0.96-0.57
		s0.46-0.53,0.59-0.87s0.2-0.7,0.2-1.09c0-0.42-0.08-0.8-0.24-1.15c-0.16-0.35-0.41-0.64-0.75-0.89c-0.34-0.25-0.77-0.44-1.29-0.57
		s-1.14-0.2-1.87-0.2h-2V95.29z M190.54,102.18h2.63c0.71,0,1.32-0.07,1.84-0.2c0.52-0.13,0.95-0.32,1.29-0.57
		c0.34-0.24,0.59-0.54,0.75-0.88s0.25-0.71,0.25-1.12c0-0.46-0.07-0.88-0.22-1.27c-0.15-0.39-0.38-0.73-0.71-1.02
		c-0.33-0.29-0.76-0.51-1.3-0.68c-0.53-0.17-1.19-0.25-1.97-0.25h-2.55V102.18z"/>
	<path class="st0" d="M210.52,103.57c-1.12,0-2.16-0.2-3.13-0.6c-0.97-0.4-1.81-0.95-2.53-1.64c-0.72-0.69-1.28-1.5-1.69-2.43
		c-0.41-0.93-0.62-1.92-0.62-2.97c0-0.69,0.09-1.35,0.28-1.99c0.18-0.64,0.45-1.24,0.79-1.79c0.34-0.55,0.75-1.06,1.24-1.51
		c0.48-0.45,1.02-0.84,1.61-1.17c0.59-0.32,1.22-0.57,1.91-0.75s1.4-0.27,2.15-0.27s1.46,0.09,2.15,0.27
		c0.68,0.18,1.32,0.43,1.91,0.75c0.59,0.32,1.13,0.71,1.61,1.17c0.48,0.45,0.89,0.96,1.24,1.51s0.61,1.15,0.8,1.79
		c0.18,0.64,0.28,1.3,0.28,1.99c0,0.7-0.09,1.37-0.28,2.02c-0.19,0.65-0.45,1.26-0.8,1.83s-0.76,1.08-1.24,1.55
		c-0.48,0.47-1.02,0.87-1.61,1.2c-0.59,0.33-1.23,0.59-1.91,0.77C211.98,103.48,211.27,103.57,210.52,103.57z M210.52,102.86
		c0.83,0,1.56-0.17,2.2-0.52s1.17-0.83,1.61-1.45c0.44-0.62,0.76-1.35,0.99-2.19c0.22-0.84,0.33-1.77,0.33-2.77
		c0-1-0.11-1.91-0.33-2.74c-0.22-0.83-0.55-1.54-0.99-2.14c-0.44-0.6-0.97-1.07-1.61-1.4c-0.64-0.33-1.37-0.5-2.2-0.5
		c-0.84,0-1.58,0.17-2.22,0.5c-0.64,0.33-1.17,0.8-1.6,1.4c-0.43,0.6-0.76,1.31-0.98,2.14c-0.22,0.83-0.33,1.74-0.33,2.74
		c0,1,0.11,1.93,0.33,2.77c0.22,0.84,0.54,1.57,0.98,2.19s0.97,1.1,1.6,1.45S209.68,102.86,210.52,102.86z"/>
	<path class="st0" d="M221.88,88.78h2.43v9.38c0,0.62,0.11,1.2,0.32,1.74c0.21,0.54,0.51,1.02,0.91,1.42
		c0.39,0.41,0.87,0.73,1.42,0.96s1.17,0.35,1.86,0.35c0.69,0,1.31-0.12,1.86-0.35c0.55-0.24,1.02-0.56,1.41-0.96
		c0.39-0.41,0.69-0.88,0.89-1.42c0.21-0.54,0.31-1.12,0.31-1.74v-9.38h1.07v9.38c0,0.74-0.12,1.44-0.36,2.09
		c-0.24,0.65-0.62,1.23-1.13,1.72c-0.51,0.49-1.17,0.88-1.97,1.17c-0.8,0.29-1.76,0.43-2.88,0.43c-1,0-1.88-0.14-2.64-0.43
		c-0.77-0.29-1.41-0.68-1.93-1.17c-0.52-0.49-0.91-1.07-1.18-1.74c-0.27-0.67-0.4-1.38-0.4-2.13V88.78z"/>
	<path class="st0" d="M238.39,88.78h5.82c0.77,0,1.48,0.08,2.12,0.26c0.64,0.17,1.19,0.41,1.66,0.72c0.46,0.31,0.82,0.69,1.07,1.12
		c0.25,0.44,0.38,0.92,0.38,1.44c0,0.4-0.04,0.76-0.12,1.07c-0.08,0.31-0.22,0.6-0.43,0.87c-0.2,0.27-0.47,0.52-0.81,0.75
		s-0.76,0.48-1.28,0.72v0.04c0.52,0.08,0.98,0.22,1.39,0.41s0.77,0.45,1.06,0.75c0.29,0.3,0.52,0.65,0.68,1.06
		c0.16,0.4,0.24,0.84,0.24,1.32c0,0.54-0.12,1.05-0.35,1.53c-0.24,0.47-0.57,0.89-1.01,1.24c-0.44,0.35-0.97,0.63-1.59,0.83
		c-0.62,0.2-1.32,0.31-2.09,0.31h-6.75V88.78z M240.82,95.29h3.09c0.49,0,0.92-0.07,1.3-0.21s0.7-0.33,0.96-0.57
		s0.46-0.53,0.59-0.87s0.2-0.7,0.2-1.09c0-0.42-0.08-0.8-0.24-1.15c-0.16-0.35-0.41-0.64-0.75-0.89c-0.34-0.25-0.77-0.44-1.29-0.57
		s-1.14-0.2-1.87-0.2h-2V95.29z M240.82,102.18h2.63c0.71,0,1.32-0.07,1.84-0.2c0.52-0.13,0.95-0.32,1.29-0.57
		c0.34-0.24,0.59-0.54,0.75-0.88s0.25-0.71,0.25-1.12c0-0.46-0.07-0.88-0.22-1.27c-0.15-0.39-0.38-0.73-0.71-1.02
		c-0.33-0.29-0.76-0.51-1.3-0.68c-0.53-0.17-1.19-0.25-1.97-0.25h-2.55V102.18z"/>
	<path class="st0" d="M253.48,88.78h2.43v14.45h-2.43V88.78z"/>
	<path class="st0" d="M270.22,88.78v0.94h-7.62v5.17h5.1v0.94h-5.1v6.47h7.62v0.94h-10.05V88.78H270.22z"/>
	<path class="st0" d="M273.41,88.78h5.01c0.86,0,1.62,0.09,2.28,0.28c0.65,0.19,1.2,0.45,1.63,0.78c0.44,0.33,0.76,0.73,0.99,1.19
		c0.22,0.46,0.33,0.96,0.33,1.51c0,0.45-0.09,0.87-0.26,1.26c-0.17,0.39-0.41,0.75-0.72,1.06c-0.31,0.32-0.68,0.59-1.12,0.82
		c-0.44,0.23-0.92,0.41-1.44,0.54l5.26,7.01h-2.82l-5.02-6.79h-1.7v6.79h-2.43V88.78z M275.84,95.71h1.41
		c0.54,0,1.05-0.07,1.51-0.22c0.46-0.15,0.86-0.35,1.2-0.62c0.34-0.26,0.6-0.59,0.79-0.96c0.19-0.38,0.28-0.8,0.28-1.27
		c0-0.44-0.07-0.84-0.22-1.2c-0.15-0.36-0.36-0.67-0.63-0.93c-0.27-0.26-0.6-0.46-0.97-0.61c-0.37-0.14-0.78-0.22-1.23-0.22h-2.14
		V95.71z"/>
	<path class="st0" d="M296.72,103.23V91.01h-2.43v-0.62c0.89,0,1.59-0.17,2.12-0.5s0.94-0.81,1.23-1.43h1.12v14.78H296.72z"/>
	<path class="st0" d="M304.5,103.19c0.81-0.07,1.61-0.29,2.38-0.65c0.77-0.36,1.47-0.82,2.11-1.39s1.18-1.21,1.63-1.95
		s0.78-1.5,0.96-2.32c-0.24,0.15-0.48,0.28-0.72,0.41c-0.24,0.13-0.5,0.25-0.77,0.34c-0.27,0.1-0.56,0.17-0.87,0.23
		c-0.31,0.05-0.64,0.08-1,0.08c-0.63,0-1.2-0.12-1.7-0.38c-0.5-0.25-0.93-0.58-1.28-1c-0.35-0.42-0.62-0.9-0.81-1.43
		c-0.19-0.54-0.28-1.09-0.28-1.67c0-0.7,0.13-1.35,0.4-1.96c0.26-0.61,0.63-1.14,1.09-1.6s1.01-0.81,1.62-1.07s1.28-0.39,1.99-0.39
		c0.71,0,1.37,0.15,1.99,0.45s1.17,0.71,1.63,1.23c0.46,0.52,0.83,1.13,1.11,1.83c0.27,0.7,0.41,1.45,0.41,2.25
		c0,0.86-0.12,1.68-0.35,2.48c-0.24,0.8-0.57,1.54-1,2.23c-0.43,0.69-0.95,1.33-1.55,1.9s-1.27,1.06-2,1.46
		c-0.73,0.41-1.52,0.72-2.37,0.95c-0.84,0.22-1.72,0.34-2.63,0.34V103.19z M311.77,96.07c0.05-0.31,0.09-0.66,0.13-1.04
		c0.04-0.38,0.05-0.75,0.05-1.12c0-0.65-0.08-1.26-0.24-1.83c-0.16-0.57-0.38-1.08-0.65-1.51c-0.28-0.43-0.6-0.78-0.97-1.03
		c-0.38-0.25-0.78-0.38-1.2-0.38c-0.44,0-0.82,0.1-1.14,0.29c-0.32,0.2-0.58,0.46-0.78,0.78c-0.2,0.32-0.35,0.69-0.45,1.09
		c-0.1,0.41-0.15,0.82-0.15,1.23c0,0.65,0.06,1.24,0.17,1.78c0.12,0.54,0.29,1.01,0.53,1.4c0.24,0.39,0.55,0.7,0.92,0.92
		s0.82,0.33,1.33,0.33c0.2,0,0.41-0.02,0.64-0.07c0.23-0.05,0.45-0.11,0.68-0.2c0.22-0.08,0.43-0.18,0.63-0.29
		C311.47,96.32,311.63,96.2,311.77,96.07z"/>
	<path class="st0" d="M319.64,95.71c0.55-0.07,1.06-0.19,1.51-0.38c0.45-0.19,0.84-0.43,1.17-0.72c0.33-0.29,0.58-0.64,0.76-1.04
		c0.18-0.4,0.27-0.83,0.27-1.3c0-0.32-0.06-0.62-0.19-0.9c-0.13-0.28-0.3-0.52-0.53-0.73c-0.23-0.21-0.5-0.37-0.82-0.49
		c-0.32-0.12-0.67-0.18-1.05-0.18c-0.28,0-0.56,0.05-0.86,0.14c-0.29,0.1-0.58,0.22-0.85,0.39c-0.27,0.16-0.52,0.36-0.75,0.58
		c-0.23,0.22-0.42,0.46-0.56,0.7l-0.44-0.16c0.15-0.44,0.36-0.85,0.62-1.23s0.57-0.72,0.93-1.01c0.36-0.29,0.77-0.52,1.23-0.68
		c0.46-0.16,0.97-0.25,1.53-0.25c0.53,0,1.03,0.08,1.49,0.24c0.46,0.16,0.86,0.37,1.21,0.64c0.34,0.27,0.62,0.59,0.82,0.96
		c0.2,0.37,0.3,0.77,0.3,1.21c0,0.22-0.06,0.48-0.17,0.75c-0.12,0.28-0.27,0.56-0.47,0.84c-0.2,0.28-0.43,0.56-0.7,0.83
		c-0.26,0.27-0.55,0.51-0.84,0.73c0.41,0.12,0.8,0.31,1.16,0.57c0.36,0.26,0.67,0.56,0.94,0.91c0.27,0.35,0.48,0.72,0.64,1.13
		c0.16,0.4,0.23,0.8,0.23,1.21c0,0.86-0.17,1.61-0.5,2.25c-0.33,0.64-0.8,1.17-1.38,1.59c-0.59,0.42-1.28,0.74-2.08,0.95
		s-1.66,0.32-2.59,0.32c-0.39,0-0.74-0.03-1.06-0.09s-0.58-0.14-0.8-0.25c-0.22-0.1-0.38-0.23-0.5-0.38
		c-0.12-0.14-0.17-0.3-0.17-0.48c0-0.15,0.04-0.28,0.11-0.39s0.17-0.19,0.29-0.25c0.12-0.06,0.24-0.11,0.38-0.13
		s0.27-0.04,0.39-0.04c0.26,0,0.48,0.03,0.67,0.08s0.35,0.11,0.5,0.19c0.14,0.08,0.28,0.16,0.4,0.25c0.12,0.09,0.25,0.17,0.39,0.25
		s0.29,0.14,0.46,0.19c0.17,0.05,0.38,0.08,0.62,0.08c0.5,0,0.94-0.08,1.33-0.25s0.71-0.38,0.97-0.67c0.26-0.28,0.46-0.6,0.59-0.96
		c0.13-0.36,0.2-0.73,0.2-1.13c0-0.5-0.1-0.97-0.29-1.39c-0.19-0.43-0.48-0.8-0.88-1.12c-0.39-0.32-0.89-0.56-1.49-0.74
		c-0.6-0.18-1.31-0.27-2.12-0.27V95.71z"/>
	<path class="st0" d="M334.45,103.57c-0.8,0-1.53-0.19-2.18-0.57c-0.66-0.38-1.22-0.9-1.69-1.58c-0.47-0.67-0.83-1.48-1.08-2.42
		c-0.25-0.94-0.38-1.96-0.38-3.07c0-1.02,0.13-1.99,0.38-2.9c0.25-0.91,0.62-1.7,1.08-2.38s1.03-1.22,1.69-1.61
		c0.66-0.39,1.39-0.59,2.18-0.59s1.53,0.2,2.18,0.59c0.65,0.39,1.21,0.93,1.68,1.61s0.83,1.47,1.08,2.38s0.38,1.87,0.38,2.9
		c0,1.11-0.13,2.14-0.38,3.07s-0.62,1.74-1.08,2.42c-0.47,0.68-1.03,1.2-1.68,1.58C335.98,103.38,335.25,103.57,334.45,103.57z
		 M334.45,102.86c0.49,0,0.91-0.19,1.28-0.57c0.36-0.38,0.66-0.89,0.9-1.53c0.24-0.64,0.42-1.38,0.54-2.21
		c0.12-0.83,0.18-1.71,0.18-2.62s-0.06-1.79-0.18-2.61c-0.12-0.82-0.3-1.54-0.54-2.15c-0.24-0.61-0.54-1.1-0.9-1.47
		s-0.79-0.54-1.28-0.54c-0.49,0-0.92,0.18-1.29,0.54s-0.66,0.85-0.9,1.47c-0.24,0.62-0.42,1.33-0.53,2.15
		c-0.12,0.82-0.17,1.69-0.17,2.61s0.06,1.79,0.17,2.62c0.12,0.83,0.29,1.57,0.53,2.21c0.24,0.64,0.54,1.15,0.9,1.53
		C333.53,102.67,333.96,102.86,334.45,102.86z"/>
</g>
<g>
	<g>
		<g>
			<path class="st0" d="M137.73,27.3h-12.67v5.76h11.23v3.55h-11.23v5.98h12.83v3.55h-16.74v-22.4h16.58V27.3z"/>
			<path class="st0" d="M160.71,23.75h3.9v22.4h-3.29l-12.33-15.94v15.94h-3.9v-22.4h3.64l11.98,15.49V23.75z"/>
			<path class="st0" d="M182.34,46.15h-3.97V27.4h-7.1v-3.65h18.18v3.65h-7.1V46.15z"/>
			<path class="st0" d="M210.47,46.15l-5.52-7.81H200v7.81h-3.9v-22.4h9.98c1.28,0,2.44,0.17,3.47,0.5s1.91,0.8,2.62,1.41
				s1.26,1.35,1.65,2.24s0.58,1.87,0.58,2.96c0,0.94-0.13,1.78-0.4,2.51c-0.27,0.74-0.63,1.39-1.1,1.95
				c-0.47,0.57-1.03,1.05-1.68,1.44c-0.65,0.4-1.37,0.7-2.16,0.91l6.05,8.48H210.47z M209.18,28.25c-0.81-0.63-1.96-0.95-3.43-0.95
				H200v7.55h5.78c1.41,0,2.54-0.34,3.37-1.03c0.83-0.69,1.25-1.61,1.25-2.76C210.4,29.82,210,28.88,209.18,28.25z"/>
			<path class="st0" d="M238.31,27.3h-12.67v5.76h11.23v3.55h-11.23v5.98h12.83v3.55h-16.74v-22.4h16.58V27.3z"/>
			<path class="st0" d="M263.35,44.21c-0.63,0.48-1.31,0.9-2.03,1.25c-0.73,0.35-1.52,0.62-2.38,0.8c-0.86,0.18-1.82,0.27-2.86,0.27
				c-1.64,0-3.16-0.3-4.54-0.9c-1.39-0.6-2.59-1.41-3.6-2.45c-1.01-1.03-1.81-2.26-2.38-3.66s-0.86-2.92-0.86-4.54
				c0-1.6,0.28-3.1,0.85-4.51c0.56-1.41,1.36-2.64,2.38-3.7c1.02-1.06,2.24-1.89,3.65-2.5c1.41-0.61,2.96-0.91,4.67-0.91
				c1.02,0,1.96,0.09,2.8,0.26s1.62,0.41,2.32,0.72c0.7,0.31,1.35,0.68,1.95,1.1c0.6,0.43,1.16,0.9,1.7,1.41l-2.53,2.91
				c-0.9-0.83-1.85-1.5-2.85-2.02c-1-0.51-2.14-0.77-3.42-0.77c-1.07,0-2.05,0.21-2.96,0.62c-0.91,0.42-1.69,0.98-2.35,1.7
				c-0.66,0.72-1.17,1.55-1.54,2.51c-0.36,0.96-0.54,2-0.54,3.1c0,1.11,0.18,2.15,0.54,3.12c0.36,0.97,0.87,1.82,1.54,2.54
				c0.66,0.73,1.44,1.3,2.35,1.71c0.91,0.42,1.89,0.62,2.96,0.62c1.37,0,2.54-0.26,3.52-0.78c0.98-0.52,1.95-1.23,2.91-2.13
				l2.53,2.56C264.58,43.18,263.98,43.73,263.35,44.21z"/>
			<path class="st0" d="M292.71,39.4c-0.58,1.41-1.39,2.64-2.43,3.7c-1.04,1.06-2.28,1.89-3.71,2.51c-1.43,0.62-3.01,0.93-4.74,0.93
				c-1.73,0-3.31-0.3-4.74-0.91c-1.43-0.61-2.66-1.43-3.68-2.48c-1.02-1.05-1.82-2.27-2.4-3.68s-0.86-2.9-0.86-4.48
				c0-1.58,0.29-3.07,0.86-4.48c0.58-1.41,1.39-2.64,2.43-3.7c1.04-1.06,2.28-1.89,3.71-2.51c1.43-0.62,3.01-0.93,4.74-0.93
				c1.73,0,3.31,0.3,4.74,0.91c1.43,0.61,2.66,1.44,3.68,2.48c1.02,1.05,1.82,2.27,2.4,3.68c0.58,1.41,0.86,2.9,0.86,4.48
				C293.57,36.49,293.28,37.99,292.71,39.4z M288.88,31.89c-0.37-0.97-0.9-1.82-1.57-2.54s-1.48-1.3-2.42-1.73s-1.96-0.64-3.07-0.64
				s-2.13,0.21-3.06,0.62s-1.72,0.98-2.38,1.7c-0.66,0.72-1.18,1.56-1.55,2.53c-0.37,0.97-0.56,2-0.56,3.09s0.19,2.12,0.56,3.09
				c0.37,0.97,0.9,1.82,1.57,2.54c0.67,0.73,1.48,1.3,2.42,1.73c0.94,0.43,1.96,0.64,3.07,0.64s2.13-0.21,3.06-0.62
				c0.93-0.42,1.72-0.98,2.38-1.7s1.18-1.56,1.55-2.53c0.37-0.97,0.56-2,0.56-3.09S289.26,32.86,288.88,31.89z"/>
			<path class="st0" d="M309.09,46.15h-3.97V27.4h-7.1v-3.65h18.18v3.65h-7.1V46.15z"/>
			<path class="st0" d="M339.43,27.3h-12.67v5.76h11.23v3.55h-11.23v5.98h12.83v3.55h-16.74v-22.4h16.58V27.3z"/>
		</g>
	</g>
	<g>
		<path class="st0" d="M285.34,19.39l-2.92-3.24l-2.92,3.24H276l5.7-6.49h1.43l5.7,6.49H285.34z"/>
	</g>
</g>
<g>
	<path class="st0" d="M59.18,97.07c-0.21-0.69-0.93-1.99-1.06-2.19c-0.31-0.49-0.66-1.02-1.05-1.48c-0.07-0.09-0.14-0.17-0.22-0.25
		c-0.01-0.02-0.03-0.03-0.04-0.05c-0.35-0.41-0.72-0.81-1.11-1.21c-1.08-1.12-2.31-2.22-3.62-3.31c-2.17-1.8-4.55-3.55-6.79-5.19
		c-1.55-1.13-3.01-2.22-4.25-3.19C32,73.01,22.62,65.59,21.11,49.91c-0.51-5.28,0.55-9.74,2.46-13.22c0.09-0.17,0.19-0.33,0.28-0.49
		c2.22-3.76,5.44-6.31,8.67-7.43c1.24-0.43,2.46-0.66,3.64-0.7c0.41-0.01,0.81-0.01,1.21,0.03c0.8,0.06,1.52,0.24,2.18,0.49
		c0.48,0.17,0.94,0.39,1.38,0.65c2.38,1.41,3.97,4,3.97,6.97c0,0.42-0.03,0.83-0.1,1.23c0,0.01,0,0.02,0,0.03
		c-0.03,0.19-0.06,0.39-0.11,0.57c-0.02,0.08-0.04,0.17-0.06,0.25c-0.01,0.05-0.03,0.11-0.05,0.16c-0.09,0.28-0.16,0.45-0.16,0.45
		c0.01,0,0,0,0.01,0c2.89-0.12,4.45-2.71,4.74-4.95c0.09-0.71,0.05-1.39-0.12-1.94c-0.07-0.22-0.14-0.44-0.22-0.66
		c-0.68-1.69-1.71-3.21-3-4.46c-0.06-0.06-0.13-0.12-0.19-0.18c-0.5-0.45-1.03-0.87-1.59-1.24c0.01,0,0.02-0.01,0.03-0.02
		c-1.04-0.7-2.18-1.26-3.4-1.65c-0.21-0.06-0.42-0.13-0.64-0.18c-0.35-0.09-0.71-0.17-1.07-0.23c-0.71-0.12-1.43-0.18-2.17-0.18
		c-0.07,0-0.15,0-0.22,0.01c-0.15-0.01-0.29,0-0.45,0.01c-0.08,0-0.16,0.01-0.24,0.02c-1.65,0.05-3.33,0.36-5,0.94
		c-4.47,1.55-8.41,4.84-11.1,9.25c-2.93,4.83-4.17,10.69-3.57,16.91c1.71,17.69,12.35,26.13,21.75,33.6
		c1.33,1.05,2.87,2.16,4.5,3.35c0.7,0.51,1.41,1.02,2.13,1.54c1.56,1.14,3.13,2.33,4.57,3.53c1.44,1.21,2.74,2.49,3.78,3.72
		c0.45,0.52,0.8,0.98,1.11,1.52c1.63,2.9,0.88,5.49,0.83,5.83c0,0,2.66-0.29,3.87-2.22c0.63-1,0.95-2.23,0.58-3.55
		C59.31,97.47,59.2,97.12,59.18,97.07z"/>
	<path class="st0" d="M54.13,69.99c-0.25,0.01-0.55,0.03-0.89,0.04c-2.73,0.07-8.15-0.14-10.68-2.79c-1.28-1.35-1.72-3.25-1.33-5.82
		c0,0,0-0.01,0-0.01c0.03-0.23,0.08-0.47,0.13-0.71c0.67-3.34,5.25-6.76,9.28-9.78c0.29-0.21,0.57-0.43,0.85-0.63
		c0.93-0.7,1.82-1.37,2.64-2.05V69.99z M61.89,74.53c-0.02-0.02-1.74-1.36-2.5-3.54c-0.03-0.09-0.06-0.18-0.09-0.27
		c-0.16-0.54-0.22-1.11-0.22-1.68l-0.03-14.35l-0.04-15.82V32.5c0,0-0.03-1.9-0.27-2.78c-0.53-1.95-1.62-3.7-3.6-3.7h-3.83
		c1.2,1.03,2.1,2.41,2.53,3.99c0,0,0,0.01,0,0.02c0.15,0.52,0.26,1.08,0.28,1.68v10.37c-0.27,0.21-1.26,0.98-2.47,1.91c0,0,0,0,0,0
		C50.4,44.96,48.9,46.11,47.7,47c-4.74,3.54-10.1,7.55-11.15,12.72c-0.13,0.66-0.23,1.31-0.29,1.93c-0.01,0.09-0.02,0.17-0.03,0.25
		c-0.01,0.08-0.01,0.15-0.02,0.23c-0.01,0.23-0.02,0.46-0.03,0.68c0,0.08,0,0.15,0,0.23v0.07c0,0.06,0,0.12,0,0.18
		c0.01,1.38,0.23,2.66,0.65,3.83c0.47,1.31,1.2,2.47,2.18,3.5c3.4,3.56,9.11,4.31,13.3,4.31c0.44,0,1.2-0.01,2.04-0.02
		c1.27-0.01,2.75-0.03,3.72-0.04h4.32L61.89,74.53z"/>
	<path class="st0" d="M95.21,37.83c-0.29-0.93-0.65-1.82-1.08-2.67c-0.64-1.27-1.43-2.44-2.39-3.53c-4.67-5.34-11.7-8.15-20.88-8.36
		c-0.96-0.02-6.18-0.03-8.54-0.01c0.25,0.37,2.02,3.04,2.07,6.11v2.33l0.04,56.54l0.01,8.58v0.52c0,0.41-0.06,0.82-0.14,1.2
		c-0.07,0.41-0.18,0.81-0.32,1.19c-0.34,0.95-0.85,1.82-1.49,2.57c-0.36,0.42-0.76,0.8-1.2,1.14h4.17c1.73,0,2.88-1.48,3.45-3.2
		c0.14-0.4,0.19-0.81,0.26-1.22c0.07-0.44,0.14-0.92,0.14-1.33l0.02-14.22c0-9.61,5.44-12.93,11.75-16.78
		c5.87-3.6,12.53-7.67,14.42-17.28C96.34,45.06,96.24,41.2,95.21,37.83z M90.69,48.46c-0.29,1.47-0.72,2.77-1.27,3.94
		c-2.25,4.82-6.47,7.41-10.91,10.12c-3.22,1.96-6.54,3.99-9.19,6.99V28.2c1.43,0.03,3.56,0.17,5.9,0.57
		c0.81,0.14,1.68,0.31,2.58,0.54c3.57,0.88,7.6,2.51,10.25,5.55c0.56,0.64,1.04,1.33,1.45,2.07c0.5,0.9,0.89,1.87,1.16,2.92
		C91.32,42.32,91.33,45.2,90.69,48.46z"/>
</g>
<polygon class="st0" points="192.98,55.12 192.98,57.14 184.72,58.66 184.72,56.68 "/>
</svg>
